# AST/ASF file generated using VICON BodyLanguage
# -----------------------------------------------
:version 1.10
:name VICON
:units
  mass 1.0
  length 0.45
  angle deg
:documentation
   .ast/.asf automatically generated from VICON data using
   VICON BodyBuilder and BodyLanguage model FoxedUp or BRILLIANT.MOD
:root
   order TX TY TZ RX RY RZ
   axis XYZ
   position 0 0 0  
   orientation 0 0 0 
:bonedata
  begin
     id 1 
     name lhipjoint
     direction 0.722297 -0.617336 0.311742 
     length 2.6635 
     axis 0 0 0  XYZ
  end
  begin
     id 2 
     name lfemur
     direction 0.34202 -0.939693 0  
     length 7.39349  
     axis 0 0 20  XYZ
    dof rx ry rz
    limits (-160.0 20.0)
           (-70.0 70.0)
           (-60.0 70.0)
  end
  begin
     id 3 
     name ltibia
     direction 0.34202 -0.939693 0   
     length 7.36294   
     axis 0 0 20   XYZ
    dof rx
    limits (-10.0 170.0)
  end
  begin
     id 4 
     name lfoot
     direction 0.104879 -0.288152 0.951824   
     length 2.16981   
     axis -90 7.62852e-016 20   XYZ
    dof rx rz
    limits (-45.0 90.0)
           (-70.0 20.0)
  end
  begin
     id 5 
     name ltoes
     direction 1.53586e-011 -4.21895e-011 1   
     length 1.08218   
     axis -90 7.62852e-016 20   XYZ
    dof rx
    limits (-90.0 20.0)
  end
  begin
     id 6 
     name rhipjoint
     direction -0.75102 -0.589393 0.297631   
     length 2.78977  
     axis 0 0 0  XYZ 
  end
  begin
     id 7 
     name rfemur
     direction -0.34202 -0.939693 0   
     length 7.46076   
     axis 0 0 -20   XYZ
    dof rx ry rz
    limits (-160.0 20.0)
           (-70.0 70.0)
           (-70.0 60.0)
  end
  begin
     id 8 
     name rtibia
     direction -0.34202 -0.939693 0   
     length 7.31726   
     axis 0 0 -20   XYZ
    dof rx
    limits (-10.0 170.0)
 end
 begin
     id 9 
     name rfoot
     direction -0.107991 -0.296704 0.948844   
     length 2.09388  
     axis -90 -7.62852e-016 -20   XYZ
    dof rx rz
    limits (-45.0 90.0)
           (-20.0 70.0)
  end
  begin
     id 10 
     name rtoes
     direction -1.53559e-011 -4.21911e-011 1   
     length 1.04433   
     axis -90 -7.62852e-016 -20   XYZ
    dof rx
    limits (-90.0 20.0)
  end
  begin
     id 11 
     name lowerback
     direction 0.0165164 0.98272 0.184358   
     length 1.71896   
     axis 0 0 0   XYZ
    dof rx ry rz
    limits (-20.0 45.0)
           (-30.0 30.0)
           (-30.0 30.0)
  end
  begin
     id 12 
     name upperback
     direction -0.00887249 0.992297 0.123566   
     length 1.71504   
     axis 0 0 0   XYZ
    dof rx ry rz
    limits (-20.0 45.0)
           (-30.0 30.0)
           (-30.0 30.0)
  end
  begin
     id 13 
     name thorax
     direction -0.0157026 0.998908 0.0440032   
     length 1.77022   
     axis 0 0 0   XYZ
    dof rx ry rz
    limits (-20.0 45.0)
           (-30.0 30.0)
           (-30.0 30.0)
  end
  begin
     id 14 
     name lowerneck
     direction -0.0238856 0.998137 0.0561411   
     length 1.89341   
     axis 0 0 0   XYZ
    dof rx ry rz
    limits (-20.0 45.0)
           (-30.0 30.0)
           (-30.0 30.0)
  end
  begin
     id 15 
     name upperneck
     direction 0.0276574 0.952253 -0.304056   
     length 1.86999   
     axis 0 0 0   XYZ
    dof rx ry rz
    limits (-20.0 45.0)
           (-30.0 30.0)
           (-30.0 30.0)
  end
  begin
     id 16
     name head
     direction 0.00800083 0.994258 -0.106712  
     length 1.91492  
     axis 0 0 0   XYZ
    dof rx ry rz
    limits (-20.0 45.0)
           (-30.0 30.0)
           (-30.0 30.0)
  end
  begin
     id 17 
     name lclavicle
     direction 0.97203 0.225407 0.06595  
     length 3.34889  
     axis 0 0 0   XYZ
    dof ry rz
    limits (-20.0 10.0)
           (0.0 20.0)
  end
  begin
     id 18 
     name lhumerus
     direction 1 -4.48973e-011 2.20267e-027   
     length 4.85645   
     axis 180 -30 -90   XYZ
    dof rx ry rz
    limits (-60.0 90.0)
           (-90.0 90.0)
           (-90.0 90.0)
  end
  begin
     id 19
     name lradius
     direction 1 -4.4897e-011 4.60472e-027   
     length 2.79874   
     axis 180 -30 -90   XYZ
    dof rx
    limits (-10.0 170.0)
  end
  begin
     id 20
     name lwrist
     direction 1 -4.48952e-011 1.14928e-026   
     length 1.39937   
     axis -6.29373e-015 90 90   XYZ
    dof ry
    limits (-180.0 0.0)
 end
  begin
     id 21 
     name lhand
     direction 1 -4.48967e-011 2.29886e-026   
     length 0.573398   
     axis -1.46689e-014 90 90   XYZ
    dof rx rz
    limits (-90.0 90.0)
           (-45.0 45.0)
  end
  begin
     id 22 
     name lfingers
     direction 1 -4.48955e-011 4.59726e-026   
     length 0.462289   
     axis -2.93383e-014 90 90   XYZ
    dof rx
    limits (0.0 90.0)
  end
  begin
     id 23
     name lthumb
     direction 0.707107 -6.34866e-011 0.707107   
     length 0.663757   
     axis -90 45 5.69224e-014   XYZ
    dof rx rz
    limits (-45.0 45.0)
           (-45.0 45.0)
  end
  begin
     id 24 
     name rclavicle
     direction -0.981571 0.157346 0.108443   
     length 3.35257  
     axis 0 0 0   XYZ 
    dof ry rz
    limits (-10.0 20.0)
           (-20.0 0.0)
  end
  begin
     id 25 
     name rhumerus
     direction -1 -4.48967e-011 8.58308e-029  
     length 4.67018   
     axis 180 30 90   XYZ
    dof rx ry rz
    limits (-90.0 60.0)
           (-90.0 90.0)
           (-90.0 90.0)
  end
  begin
     id 26 
     name rradius
     direction -1 -4.48958e-011 4.52548e-027   
     length 2.65534   
     axis 180 30 90   XYZ
    dof rx
    limits (-10.0 170.0)
  end
  begin
     id 27 
     name rwrist
     direction -1 -4.48977e-011 1.14952e-026   
     length 1.32767   
     axis -6.29373e-015 -90 -90   XYZ
    dof ry
    limits (-180.0 0.0)
  end
  begin
     id 28
     name rhand
     direction -1 -4.48924e-011 2.29804e-026   
     length 0.594069   
     axis -1.46689e-014 -90 -90   XYZ
    dof rx rz
    limits (-90.0 90.0)
           (-45.0 45.0)
  end
  begin
     id 29
     name rfingers
     direction -1 -4.48998e-011 4.59888e-026   
     length 0.478954   
     axis -2.93383e-014 -90 -90   XYZ
    dof rx
    limits (0.0 90.0)
  end
  begin
     id 30
     name rthumb
     direction -0.707107 -6.34933e-011 0.707107   
     length 0.687685   
     axis -90 -45 -5.69224e-014   XYZ
    dof rx rz
    limits (-45.0 45.0)
           (-45.0 45.0)
  end
:hierarchy
  begin
    root lhipjoint rhipjoint lowerback
    lhipjoint lfemur
    lfemur ltibia
    ltibia lfoot
    lfoot ltoes
    rhipjoint rfemur
    rfemur rtibia
    rtibia rfoot
    rfoot rtoes
    lowerback upperback
    upperback thorax
    thorax lowerneck lclavicle rclavicle
    lowerneck upperneck
    upperneck head
    lclavicle lhumerus
    lhumerus lradius
    lradius lwrist
    lwrist lhand lthumb
    lhand lfingers
    rclavicle rhumerus
    rhumerus rradius
    rradius rwrist
    rwrist rhand rthumb
    rhand rfingers
  end

#!OML:ASF E:\pregnant2\Project 1\Capture day 1\Session 1\pregnant2.ASF
:FULLY-SPECIFIED
:DEGREES
532
root 4.23939 17.2463 18.0503 24.3754 81.8833 -11.1691
lowerback -17.9169 4.39826 6.15038
upperback -16.0993 6.3213 -5.02393
thorax -6.5114 2.97626 -8.18591
lowerneck -4.25638 13.4713 22.8069
upperneck 33.6771 26.3462 -16.9565
head 19.4969 13.2452 -5.93137
rclavicle -3.43897e-014 -4.77083e-015
rhumerus -54.9347 5.45415 -90.9757
rradius 39.4497
rwrist 2.01929
rhand -19.2528 -16.8573
rfingers 7.12502
rthumb 7.06116 -46.7196
lclavicle -3.43897e-014 -4.77083e-015
lhumerus -69.3753 -39.3095 110.871
lradius 63.9251
lwrist 12.7312
lhand 14.0296 29.9369
lfingers 7.12502
lthumb 38.9375 55.4748
rfemur -48.2302 11.041 12.3639
rtibia 24.5106
rfoot -11.4568 -11.4973
rtoes 0.558421
lfemur -49.5858 -19.1032 9.36687
ltibia 36.3518
lfoot -16.8681 -8.39639
ltoes -21.8801
533
root 4.22732 17.2529 18.1427 22.8513 83.061 -12.7953
lowerback -17.8841 4.3665 6.19419
upperback -16.0825 6.29528 -4.98704
thorax -6.51533 2.96916 -8.17671
lowerneck -4.4205 13.3688 22.6136
upperneck 33.8451 26.2932 -16.9608
head 19.5872 13.2085 -5.91663
rclavicle 2.3556e-014 2.62396e-014
rhumerus -54.8379 5.58912 -91.0278
rradius 39.4504
rwrist 1.27087
rhand -20.2864 -17.7296
rfingers 7.12502
rthumb 6.06335 -47.6228
lclavicle 2.3556e-014 2.62396e-014
lhumerus -68.8934 -39.033 110.426
lradius 63.7682
lwrist 12.4482
lhand 14.9177 29.1676
lfingers 7.12502
lthumb 39.7741 54.4614
rfemur -48.0732 10.6379 13.1058
rtibia 24.4735
rfoot -11.6063 -11.901
rtoes 1.35905
lfemur -49.858 -19.209 9.76998
ltibia 36.3699
lfoot -16.3031 -7.21652
ltoes -21.1886
534
root 4.21685 17.2581 18.2344 20.9177 84.21 -14.8216
lowerback -17.8103 4.38309 6.25182
upperback -16.1022 6.33715 -5.04735
thorax -6.56053 2.9893 -8.27937
lowerneck -4.6735 13.2086 22.4588
upperneck 34.1035 26.0908 -16.8626
head 19.687 13.1185 -5.90017
rclavicle -4.02539e-014 0
rhumerus -54.7125 5.28452 -90.9175
rradius 39.2904
rwrist 1.22812
rhand -20.4271 -17.9375
rfingers 7.12502
rthumb 5.92744 -47.8346
lclavicle -4.02539e-014 0
lhumerus -69.0318 -39.1353 110.424
lradius 63.9487
lwrist 12.196
lhand 14.8286 29.3338
lfingers 7.12502
lthumb 39.6902 54.6526
rfemur -47.9441 10.174 13.8588
rtibia 24.5046
rfoot -11.7746 -12.2206
rtoes 1.94512
lfemur -50.0683 -19.197 9.94243
ltibia 36.4078
lfoot -15.8807 -5.80674
ltoes -20.4533
535
root 4.20601 17.2607 18.3243 18.5937 85.376 -17.2465
lowerback -17.7842 4.28284 6.19467
upperback -16.1131 6.23655 -4.98772
thorax -6.61612 2.95274 -8.20227
lowerneck -4.78814 13.0975 22.2614
upperneck 34.2713 26.0148 -16.8304
head 19.7464 13.0781 -5.87764
rclavicle -2.127e-014 -2.22639e-014
rhumerus -54.6393 5.25073 -90.8173
rradius 39.198
rwrist 1.1994
rhand -20.6525 -18.1191
rfingers 7.12502
rthumb 5.70989 -48.0222
lclavicle -2.127e-014 -2.22639e-014
lhumerus -69.0085 -38.8894 110.312
lradius 64.0411
lwrist 11.9611
lhand 14.6254 29.333
lfingers 7.12502
lthumb 39.4989 54.7082
rfemur -47.8931 9.74009 14.4871
rtibia 24.6214
rfoot -12.0091 -12.5785
rtoes 2.73559
lfemur -50.2756 -19.1018 9.94584
ltibia 36.4654
lfoot -15.3913 -4.31533
ltoes -19.4197
536
root 4.19735 17.2608 18.4103 15.0814 86.4803 -20.8184
lowerback -17.7491 4.22825 6.11796
upperback -16.1163 6.19732 -4.95193
thorax -6.65398 2.94887 -8.13012
lowerneck -4.85417 12.9812 21.9775
upperneck 34.3893 25.894 -16.7273
head 19.7056 13.0153 -5.82175
rclavicle 4.51738e-014 -7.95139e-015
rhumerus -54.6028 5.30328 -90.6711
rradius 39.1935
rwrist 1.01556
rhand -20.6975 -18.2689
rfingers 7.12502
rthumb 5.66643 -48.1731
lclavicle 4.51738e-014 -7.95139e-015
lhumerus -69.1464 -38.7563 110.466
lradius 64.1482
lwrist 11.7512
lhand 13.707 29.8065
lfingers 7.12502
lthumb 38.6332 55.4306
rfemur -47.832 9.18246 15.2013
rtibia 24.8102
rfoot -12.2276 -12.8236
rtoes 3.10315
lfemur -50.3855 -18.9175 9.68853
ltibia 36.5529
lfoot -14.9353 -2.62649
ltoes -18.5784
537
root 4.18729 17.2582 18.495 7.0413 87.6043 -28.8762
lowerback -17.6972 4.14389 6.10699
upperback -16.0749 6.10516 -4.89172
thorax -6.65617 2.91289 -8.07351
lowerneck -4.89047 12.8793 21.8504
upperneck 34.407 25.8358 -16.8113
head 19.7033 12.9844 -5.85964
rclavicle -1.21259e-014 -2.8625e-014
rhumerus -54.4779 5.32626 -90.5678
rradius 39.1553
rwrist 0.906933
rhand -20.7749 -18.4355
rfingers 7.12502
rthumb 5.59172 -48.3417
lclavicle -1.21259e-014 -2.8625e-014
lhumerus -69.5367 -38.7785 110.917
lradius 64.6073
lwrist 12.9271
lhand 11.0889 31.7096
lfingers 7.12502
lthumb 36.1584 57.987
rfemur -47.7847 8.70019 15.8856
rtibia 25.0729
rfoot -12.5132 -13.0901
rtoes 3.7452
lfemur -50.4503 -18.5719 9.36091
ltibia 36.6615
lfoot -14.5772 -1.31842
ltoes -17.4376
538
root 4.17819 17.2536 18.5785 -12.9428 88.5624 -48.8579
lowerback -17.6588 4.07335 6.06398
upperback -16.0211 6.0327 -4.79858
thorax -6.63742 2.89235 -7.95643
lowerneck -5.01414 12.7553 21.6211
upperneck 34.5328 25.7372 -16.8094
head 19.7337 12.9275 -5.85065
rclavicle -1.73937e-014 6.36111e-015
rhumerus -54.3397 5.30535 -90.3754
rradius 39.1029
rwrist 0.915269
rhand -20.9706 -18.6759
rfingers 7.12502
rthumb 5.40272 -48.587
lclavicle -1.73937e-014 6.36111e-015
lhumerus -69.3473 -38.5594 110.734
lradius 64.5475
lwrist 12.2909
lhand 11.1275 31.7128
lfingers 7.12502
lthumb 36.195 57.9812
rfemur -47.736 8.18481 16.6176
rtibia 25.3383
rfoot -12.7792 -13.4299
rtoes 4.27133
lfemur -50.433 -18.1028 8.82743
ltibia 36.8098
lfoot -14.1721 0.170959
ltoes -16.0145
539
root 4.16903 17.246 18.6597 -66.725 88.9384 -102.62
lowerback -17.6088 4.00181 6.08517
upperback -15.9678 5.95162 -4.70782
thorax -6.62318 2.86071 -7.88096
lowerneck -5.11249 12.6167 21.4527
upperneck 34.6351 25.6115 -16.8368
head 19.7553 12.8666 -5.87422
rclavicle 8.27441e-014 -3.65764e-014
rhumerus -54.3073 5.53483 -90.4904
rradius 39.2878
rwrist 0.167422
rhand -22.3468 -20.0974
rfingers 7.12502
rthumb 4.07391 -50.0382
lclavicle 8.27441e-014 -3.65764e-014
lhumerus -69.141 -38.2525 110.558
lradius 64.4248
lwrist 11.6174
lhand 9.62524 32.4166
lfingers 7.12502
lthumb 34.7708 59.0259
rfemur -47.6912 7.69759 17.3454
rtibia 25.6252
rfoot -13.1035 -13.6404
rtoes 4.95407
lfemur -50.3795 -17.4205 8.00888
ltibia 36.9798
lfoot -13.7274 1.9913
ltoes -16.6555
540
root 4.16597 17.2453 18.7437 -107.038 88.3644 -142.867
lowerback -17.6101 4.01289 6.062
upperback -15.8834 5.97598 -4.72428
thorax -6.51861 2.88537 -7.87423
lowerneck -5.387 12.4493 21.3222
upperneck 34.8706 25.3583 -16.721
head 19.8344 12.7561 -5.86316
rclavicle -2.53947e-014 2.3059e-014
rhumerus -54.1604 5.28936 -90.4015
rradius 39.3073
rwrist -0.0496779
rhand -22.579 -20.5361
rfingers 7.12502
rthumb 3.84966 -50.4811
lclavicle -2.53947e-014 2.3059e-014
lhumerus -69.1336 -38.49 110.427
lradius 64.4659
lwrist 11.2418
lhand 9.60757 32.2812
lfingers 7.12502
lthumb 34.754 58.8943
rfemur -47.5768 7.3302 18.0087
rtibia 25.8664
rfoot -13.3851 -13.9821
rtoes 5.53898
lfemur -50.1496 -16.9052 7.37389
ltibia 37.1682
lfoot -13.576 3.48878
ltoes -12.9257
541
root 4.16367 17.2389 18.8301 -122.088 87.4955 -157.806
lowerback -17.5218 3.89913 5.87292
upperback -15.8444 5.86525 -4.55638
thorax -6.56374 2.858 -7.60344
lowerneck -5.48427 12.3111 21.0633
upperneck 35.1021 25.2508 -16.627
head 19.8929 12.7046 -5.81305
rclavicle -6.49529e-014 1.74931e-014
rhumerus -54.1708 5.48434 -90.2593
rradius 39.3144
rwrist -0.0482759
rhand -22.0493 -20.003
rfingers 7.12502
rthumb 4.36114 -49.9381
lclavicle -6.49529e-014 1.74931e-014
lhumerus -69.0501 -38.19 110.315
lradius 64.4055
lwrist 10.9411
lhand 10.3783 31.707
lfingers 7.12502
lthumb 35.4851 58.1484
rfemur -47.5221 7.00434 18.672
rtibia 26.2859
rfoot -13.7317 -14.3694
rtoes 5.81382
lfemur -49.8469 -16.159 6.4177
ltibia 37.4553
lfoot -13.7462 5.21111
ltoes -12.4284
542
root 4.17006 17.2364 18.9301 -127.222 86.6051 -162.696
lowerback -17.4434 3.86164 5.57567
upperback -15.7461 5.85609 -4.43785
thorax -6.51647 2.89185 -7.3032
lowerneck -5.56501 12.1665 20.9484
upperneck 35.2781 25.0852 -16.5376
head 19.9231 12.646 -5.80188
rclavicle -8.9801e-014 -1.90833e-014
rhumerus -54.0707 5.15271 -89.9393
rradius 39.1708
rwrist 0.340114
rhand -21.5713 -19.3854
rfingers 7.12502
rthumb 4.82269 -49.3105
lclavicle -8.9801e-014 -1.90833e-014
lhumerus -69.0292 -38.1746 110.253
lradius 64.3189
lwrist 10.7201
lhand 11.3844 31.0995
lfingers 7.12502
lthumb 36.4382 57.3071
rfemur -47.2902 7.02909 19.3245
rtibia 26.6884
rfoot -14.1192 -14.9671
rtoes 6.08156
lfemur -49.2633 -15.2254 5.379
ltibia 37.7803
lfoot -13.9176 6.93329
ltoes -12.0936
